<mxfile host="Electron" agent="Mozilla/5.0 (Windows NT 10.0; Win64; x64) AppleWebKit/537.36 (KHTML, like Gecko) draw.io/24.7.17 Chrome/128.0.6613.36 Electron/32.0.1 Safari/537.36" version="24.7.17">
  <diagram name="PÃ¡gina-1" id="FprBiE0gpflzSK3oFWXQ">
    <mxGraphModel dx="704" dy="426" grid="1" gridSize="10" guides="1" tooltips="1" connect="1" arrows="1" fold="1" page="1" pageScale="1" pageWidth="827" pageHeight="1169" math="0" shadow="0">
      <root>
        <mxCell id="0" />
        <mxCell id="1" parent="0" />
        <mxCell id="cqQGVIpaapztCGoW0pUA-1" value="" style="endArrow=none;html=1;rounded=0;" edge="1" parent="1">
          <mxGeometry width="50" height="50" relative="1" as="geometry">
            <mxPoint x="40" y="370" as="sourcePoint" />
            <mxPoint x="40" y="290" as="targetPoint" />
          </mxGeometry>
        </mxCell>
        <mxCell id="cqQGVIpaapztCGoW0pUA-2" value="" style="endArrow=classic;html=1;rounded=0;" edge="1" parent="1">
          <mxGeometry width="50" height="50" relative="1" as="geometry">
            <mxPoint x="40" y="330" as="sourcePoint" />
            <mxPoint x="100" y="330" as="targetPoint" />
          </mxGeometry>
        </mxCell>
        <mxCell id="cqQGVIpaapztCGoW0pUA-5" value="" style="ellipse;whiteSpace=wrap;html=1;aspect=fixed;" vertex="1" parent="1">
          <mxGeometry x="100.00000000000011" y="310" width="40" height="40" as="geometry" />
        </mxCell>
        <mxCell id="cqQGVIpaapztCGoW0pUA-6" value="" style="endArrow=none;html=1;rounded=0;" edge="1" parent="1">
          <mxGeometry width="50" height="50" relative="1" as="geometry">
            <mxPoint x="240.0000000000001" y="280" as="sourcePoint" />
            <mxPoint x="240.0000000000001" y="200" as="targetPoint" />
          </mxGeometry>
        </mxCell>
        <mxCell id="cqQGVIpaapztCGoW0pUA-7" value="" style="endArrow=classic;html=1;rounded=0;" edge="1" parent="1">
          <mxGeometry width="50" height="50" relative="1" as="geometry">
            <mxPoint x="240.0000000000001" y="240" as="sourcePoint" />
            <mxPoint x="300.0000000000001" y="240" as="targetPoint" />
          </mxGeometry>
        </mxCell>
        <mxCell id="cqQGVIpaapztCGoW0pUA-8" value="" style="endArrow=classic;html=1;rounded=0;" edge="1" parent="1" source="cqQGVIpaapztCGoW0pUA-5">
          <mxGeometry width="50" height="50" relative="1" as="geometry">
            <mxPoint x="180.0000000000001" y="239.57999999999998" as="sourcePoint" />
            <mxPoint x="240.0000000000001" y="240" as="targetPoint" />
          </mxGeometry>
        </mxCell>
        <mxCell id="cqQGVIpaapztCGoW0pUA-13" value="Llega Persona&lt;div&gt;por Calle 1&lt;/div&gt;" style="text;html=1;align=center;verticalAlign=middle;resizable=0;points=[];autosize=1;strokeColor=none;fillColor=none;" vertex="1" parent="1">
          <mxGeometry y="230" width="100" height="40" as="geometry" />
        </mxCell>
        <mxCell id="cqQGVIpaapztCGoW0pUA-15" value="Comienza&lt;div&gt;Revision 1&lt;/div&gt;&lt;div&gt;C1&lt;/div&gt;" style="text;html=1;align=center;verticalAlign=middle;resizable=0;points=[];autosize=1;strokeColor=none;fillColor=none;" vertex="1" parent="1">
          <mxGeometry x="200" y="140" width="80" height="60" as="geometry" />
        </mxCell>
        <mxCell id="cqQGVIpaapztCGoW0pUA-16" value="" style="ellipse;whiteSpace=wrap;html=1;aspect=fixed;" vertex="1" parent="1">
          <mxGeometry x="300.0000000000001" y="220" width="40" height="40" as="geometry" />
        </mxCell>
        <mxCell id="cqQGVIpaapztCGoW0pUA-17" value="" style="endArrow=none;html=1;rounded=0;" edge="1" parent="1">
          <mxGeometry width="50" height="50" relative="1" as="geometry">
            <mxPoint x="400.0000000000001" y="280" as="sourcePoint" />
            <mxPoint x="400.0000000000001" y="200" as="targetPoint" />
          </mxGeometry>
        </mxCell>
        <mxCell id="cqQGVIpaapztCGoW0pUA-18" value="" style="endArrow=classic;html=1;rounded=0;" edge="1" parent="1" target="cqQGVIpaapztCGoW0pUA-50">
          <mxGeometry width="50" height="50" relative="1" as="geometry">
            <mxPoint x="400.0000000000001" y="240" as="sourcePoint" />
            <mxPoint x="460.0000000000001" y="240" as="targetPoint" />
          </mxGeometry>
        </mxCell>
        <mxCell id="cqQGVIpaapztCGoW0pUA-19" value="" style="endArrow=classic;html=1;rounded=0;" edge="1" parent="1">
          <mxGeometry width="50" height="50" relative="1" as="geometry">
            <mxPoint x="340.0000000000001" y="239.57999999999998" as="sourcePoint" />
            <mxPoint x="400.0000000000001" y="240" as="targetPoint" />
          </mxGeometry>
        </mxCell>
        <mxCell id="cqQGVIpaapztCGoW0pUA-20" value="Revisando&lt;div&gt;Persona 1&lt;/div&gt;" style="text;html=1;align=center;verticalAlign=middle;resizable=0;points=[];autosize=1;strokeColor=none;fillColor=none;" vertex="1" parent="1">
          <mxGeometry x="280" y="270" width="80" height="40" as="geometry" />
        </mxCell>
        <mxCell id="cqQGVIpaapztCGoW0pUA-27" value="Persona&lt;div&gt;esperando en&amp;nbsp;&lt;/div&gt;&lt;div&gt;Calle 1&lt;/div&gt;" style="text;html=1;align=center;verticalAlign=middle;resizable=0;points=[];autosize=1;strokeColor=none;fillColor=none;" vertex="1" parent="1">
          <mxGeometry x="40" y="350" width="100" height="60" as="geometry" />
        </mxCell>
        <mxCell id="cqQGVIpaapztCGoW0pUA-33" style="edgeStyle=orthogonalEdgeStyle;rounded=0;orthogonalLoop=1;jettySize=auto;html=1;curved=1;" edge="1" source="cqQGVIpaapztCGoW0pUA-35" parent="1">
          <mxGeometry relative="1" as="geometry">
            <mxPoint x="230" y="270" as="targetPoint" />
          </mxGeometry>
        </mxCell>
        <mxCell id="cqQGVIpaapztCGoW0pUA-34" style="edgeStyle=orthogonalEdgeStyle;rounded=0;orthogonalLoop=1;jettySize=auto;html=1;curved=1;endArrow=none;endFill=0;startArrow=classic;startFill=1;" edge="1" source="cqQGVIpaapztCGoW0pUA-35" parent="1">
          <mxGeometry relative="1" as="geometry">
            <mxPoint x="420" y="270" as="targetPoint" />
          </mxGeometry>
        </mxCell>
        <mxCell id="cqQGVIpaapztCGoW0pUA-45" style="edgeStyle=orthogonalEdgeStyle;rounded=0;orthogonalLoop=1;jettySize=auto;html=1;curved=1;" edge="1" parent="1" source="cqQGVIpaapztCGoW0pUA-35">
          <mxGeometry relative="1" as="geometry">
            <mxPoint x="230" y="490" as="targetPoint" />
          </mxGeometry>
        </mxCell>
        <mxCell id="cqQGVIpaapztCGoW0pUA-46" style="edgeStyle=orthogonalEdgeStyle;rounded=0;orthogonalLoop=1;jettySize=auto;html=1;curved=1;endArrow=none;endFill=0;startArrow=classic;startFill=1;" edge="1" parent="1" source="cqQGVIpaapztCGoW0pUA-35">
          <mxGeometry relative="1" as="geometry">
            <mxPoint x="420" y="500" as="targetPoint" />
          </mxGeometry>
        </mxCell>
        <mxCell id="cqQGVIpaapztCGoW0pUA-35" value="OO&lt;div&gt;OO&lt;/div&gt;" style="ellipse;whiteSpace=wrap;html=1;aspect=fixed;" vertex="1" parent="1">
          <mxGeometry x="300" y="370" width="40" height="40" as="geometry" />
        </mxCell>
        <mxCell id="cqQGVIpaapztCGoW0pUA-36" value="Inspectores&lt;div&gt;Libres&lt;/div&gt;" style="text;html=1;align=center;verticalAlign=middle;resizable=0;points=[];autosize=1;strokeColor=none;fillColor=none;" vertex="1" parent="1">
          <mxGeometry x="275" y="330" width="90" height="40" as="geometry" />
        </mxCell>
        <mxCell id="cqQGVIpaapztCGoW0pUA-37" value="" style="endArrow=none;html=1;rounded=0;" edge="1" parent="1">
          <mxGeometry width="50" height="50" relative="1" as="geometry">
            <mxPoint x="240" y="560" as="sourcePoint" />
            <mxPoint x="240" y="480" as="targetPoint" />
          </mxGeometry>
        </mxCell>
        <mxCell id="cqQGVIpaapztCGoW0pUA-38" value="" style="endArrow=classic;html=1;rounded=0;" edge="1" parent="1">
          <mxGeometry width="50" height="50" relative="1" as="geometry">
            <mxPoint x="240" y="520" as="sourcePoint" />
            <mxPoint x="300" y="520" as="targetPoint" />
          </mxGeometry>
        </mxCell>
        <mxCell id="cqQGVIpaapztCGoW0pUA-39" value="" style="ellipse;whiteSpace=wrap;html=1;aspect=fixed;" vertex="1" parent="1">
          <mxGeometry x="300.0000000000001" y="500" width="40" height="40" as="geometry" />
        </mxCell>
        <mxCell id="cqQGVIpaapztCGoW0pUA-40" value="" style="endArrow=none;html=1;rounded=0;" edge="1" parent="1">
          <mxGeometry width="50" height="50" relative="1" as="geometry">
            <mxPoint x="400.0000000000001" y="560" as="sourcePoint" />
            <mxPoint x="400.0000000000001" y="480" as="targetPoint" />
          </mxGeometry>
        </mxCell>
        <mxCell id="cqQGVIpaapztCGoW0pUA-41" value="" style="endArrow=classic;html=1;rounded=0;" edge="1" parent="1" target="cqQGVIpaapztCGoW0pUA-50">
          <mxGeometry width="50" height="50" relative="1" as="geometry">
            <mxPoint x="400.0000000000001" y="520" as="sourcePoint" />
            <mxPoint x="460.0000000000001" y="520" as="targetPoint" />
          </mxGeometry>
        </mxCell>
        <mxCell id="cqQGVIpaapztCGoW0pUA-42" value="" style="endArrow=classic;html=1;rounded=0;" edge="1" parent="1">
          <mxGeometry width="50" height="50" relative="1" as="geometry">
            <mxPoint x="340.0000000000001" y="519.5799999999999" as="sourcePoint" />
            <mxPoint x="400.0000000000001" y="520" as="targetPoint" />
          </mxGeometry>
        </mxCell>
        <mxCell id="cqQGVIpaapztCGoW0pUA-43" value="" style="endArrow=classic;html=1;rounded=0;" edge="1" parent="1" source="cqQGVIpaapztCGoW0pUA-5">
          <mxGeometry width="50" height="50" relative="1" as="geometry">
            <mxPoint x="180.0000000000001" y="519.66" as="sourcePoint" />
            <mxPoint x="240.0000000000001" y="519.66" as="targetPoint" />
          </mxGeometry>
        </mxCell>
        <mxCell id="cqQGVIpaapztCGoW0pUA-44" value="Comienza&lt;div&gt;Revision 2&lt;/div&gt;&lt;div&gt;C1&lt;/div&gt;" style="text;html=1;align=center;verticalAlign=middle;resizable=0;points=[];autosize=1;strokeColor=none;fillColor=none;" vertex="1" parent="1">
          <mxGeometry x="235" y="430" width="80" height="60" as="geometry" />
        </mxCell>
        <mxCell id="cqQGVIpaapztCGoW0pUA-47" value="&lt;div&gt;Finaliza&lt;/div&gt;&lt;div&gt;Revision 1&lt;/div&gt;&lt;div&gt;C1&lt;/div&gt;" style="text;html=1;align=center;verticalAlign=middle;resizable=0;points=[];autosize=1;strokeColor=none;fillColor=none;" vertex="1" parent="1">
          <mxGeometry x="334" y="140" width="80" height="60" as="geometry" />
        </mxCell>
        <mxCell id="cqQGVIpaapztCGoW0pUA-48" value="&lt;div&gt;Finaliza&lt;/div&gt;&lt;div&gt;Revision 2&lt;/div&gt;&lt;div&gt;C1&lt;/div&gt;" style="text;html=1;align=center;verticalAlign=middle;resizable=0;points=[];autosize=1;strokeColor=none;fillColor=none;" vertex="1" parent="1">
          <mxGeometry x="334" y="430" width="80" height="60" as="geometry" />
        </mxCell>
        <mxCell id="cqQGVIpaapztCGoW0pUA-49" value="Revisando&lt;div&gt;Persona 2&lt;/div&gt;" style="text;html=1;align=center;verticalAlign=middle;resizable=0;points=[];autosize=1;strokeColor=none;fillColor=none;" vertex="1" parent="1">
          <mxGeometry x="275" y="545" width="80" height="40" as="geometry" />
        </mxCell>
        <mxCell id="cqQGVIpaapztCGoW0pUA-89" style="edgeStyle=orthogonalEdgeStyle;rounded=0;orthogonalLoop=1;jettySize=auto;html=1;" edge="1" parent="1" source="cqQGVIpaapztCGoW0pUA-50">
          <mxGeometry relative="1" as="geometry">
            <mxPoint x="720" y="605" as="targetPoint" />
          </mxGeometry>
        </mxCell>
        <mxCell id="cqQGVIpaapztCGoW0pUA-90" style="rounded=0;orthogonalLoop=1;jettySize=auto;html=1;" edge="1" parent="1" source="cqQGVIpaapztCGoW0pUA-50">
          <mxGeometry relative="1" as="geometry">
            <mxPoint x="710" y="440" as="targetPoint" />
          </mxGeometry>
        </mxCell>
        <mxCell id="cqQGVIpaapztCGoW0pUA-91" style="rounded=0;orthogonalLoop=1;jettySize=auto;html=1;" edge="1" parent="1" source="cqQGVIpaapztCGoW0pUA-50">
          <mxGeometry relative="1" as="geometry">
            <mxPoint x="710" y="760" as="targetPoint" />
          </mxGeometry>
        </mxCell>
        <mxCell id="cqQGVIpaapztCGoW0pUA-50" value="" style="ellipse;whiteSpace=wrap;html=1;aspect=fixed;" vertex="1" parent="1">
          <mxGeometry x="600" y="585" width="40" height="40" as="geometry" />
        </mxCell>
        <mxCell id="cqQGVIpaapztCGoW0pUA-51" value="" style="endArrow=none;html=1;rounded=0;" edge="1" parent="1">
          <mxGeometry width="50" height="50" relative="1" as="geometry">
            <mxPoint x="40" y="840" as="sourcePoint" />
            <mxPoint x="40" y="760" as="targetPoint" />
          </mxGeometry>
        </mxCell>
        <mxCell id="cqQGVIpaapztCGoW0pUA-52" value="" style="endArrow=classic;html=1;rounded=0;" edge="1" parent="1">
          <mxGeometry width="50" height="50" relative="1" as="geometry">
            <mxPoint x="40" y="800" as="sourcePoint" />
            <mxPoint x="100" y="800" as="targetPoint" />
          </mxGeometry>
        </mxCell>
        <mxCell id="cqQGVIpaapztCGoW0pUA-53" value="" style="ellipse;whiteSpace=wrap;html=1;aspect=fixed;" vertex="1" parent="1">
          <mxGeometry x="100.00000000000011" y="780" width="40" height="40" as="geometry" />
        </mxCell>
        <mxCell id="cqQGVIpaapztCGoW0pUA-54" value="" style="endArrow=none;html=1;rounded=0;" edge="1" parent="1">
          <mxGeometry width="50" height="50" relative="1" as="geometry">
            <mxPoint x="240.0000000000001" y="750" as="sourcePoint" />
            <mxPoint x="240.0000000000001" y="670" as="targetPoint" />
          </mxGeometry>
        </mxCell>
        <mxCell id="cqQGVIpaapztCGoW0pUA-55" value="" style="endArrow=classic;html=1;rounded=0;" edge="1" parent="1">
          <mxGeometry width="50" height="50" relative="1" as="geometry">
            <mxPoint x="240.0000000000001" y="710" as="sourcePoint" />
            <mxPoint x="300.0000000000001" y="710" as="targetPoint" />
          </mxGeometry>
        </mxCell>
        <mxCell id="cqQGVIpaapztCGoW0pUA-56" value="" style="endArrow=classic;html=1;rounded=0;" edge="1" parent="1" source="cqQGVIpaapztCGoW0pUA-53">
          <mxGeometry width="50" height="50" relative="1" as="geometry">
            <mxPoint x="180.0000000000001" y="709.5799999999999" as="sourcePoint" />
            <mxPoint x="240.0000000000001" y="710" as="targetPoint" />
          </mxGeometry>
        </mxCell>
        <mxCell id="cqQGVIpaapztCGoW0pUA-57" value="Llega Persona&lt;div&gt;por Calle 2&lt;/div&gt;" style="text;html=1;align=center;verticalAlign=middle;resizable=0;points=[];autosize=1;strokeColor=none;fillColor=none;" vertex="1" parent="1">
          <mxGeometry y="700" width="100" height="40" as="geometry" />
        </mxCell>
        <mxCell id="cqQGVIpaapztCGoW0pUA-58" value="Comienza&lt;div&gt;Revision 1&lt;/div&gt;&lt;div&gt;C2&lt;/div&gt;" style="text;html=1;align=center;verticalAlign=middle;resizable=0;points=[];autosize=1;strokeColor=none;fillColor=none;" vertex="1" parent="1">
          <mxGeometry x="200" y="610" width="80" height="60" as="geometry" />
        </mxCell>
        <mxCell id="cqQGVIpaapztCGoW0pUA-59" value="" style="ellipse;whiteSpace=wrap;html=1;aspect=fixed;" vertex="1" parent="1">
          <mxGeometry x="300.0000000000001" y="690" width="40" height="40" as="geometry" />
        </mxCell>
        <mxCell id="cqQGVIpaapztCGoW0pUA-60" value="" style="endArrow=none;html=1;rounded=0;" edge="1" parent="1">
          <mxGeometry width="50" height="50" relative="1" as="geometry">
            <mxPoint x="400.0000000000001" y="750" as="sourcePoint" />
            <mxPoint x="400.0000000000001" y="670" as="targetPoint" />
          </mxGeometry>
        </mxCell>
        <mxCell id="cqQGVIpaapztCGoW0pUA-61" value="" style="endArrow=classic;html=1;rounded=0;" edge="1" parent="1" target="cqQGVIpaapztCGoW0pUA-50">
          <mxGeometry width="50" height="50" relative="1" as="geometry">
            <mxPoint x="400.0000000000001" y="710" as="sourcePoint" />
            <mxPoint x="460.0000000000001" y="710" as="targetPoint" />
          </mxGeometry>
        </mxCell>
        <mxCell id="cqQGVIpaapztCGoW0pUA-62" value="" style="endArrow=classic;html=1;rounded=0;" edge="1" parent="1">
          <mxGeometry width="50" height="50" relative="1" as="geometry">
            <mxPoint x="340.0000000000001" y="709.5799999999999" as="sourcePoint" />
            <mxPoint x="400.0000000000001" y="710" as="targetPoint" />
          </mxGeometry>
        </mxCell>
        <mxCell id="cqQGVIpaapztCGoW0pUA-63" value="Revisando&lt;div&gt;Persona 3&lt;/div&gt;" style="text;html=1;align=center;verticalAlign=middle;resizable=0;points=[];autosize=1;strokeColor=none;fillColor=none;" vertex="1" parent="1">
          <mxGeometry x="280" y="740" width="80" height="40" as="geometry" />
        </mxCell>
        <mxCell id="cqQGVIpaapztCGoW0pUA-64" value="Persona&lt;div&gt;esperando en&amp;nbsp;&lt;/div&gt;&lt;div&gt;Calle 2&lt;/div&gt;" style="text;html=1;align=center;verticalAlign=middle;resizable=0;points=[];autosize=1;strokeColor=none;fillColor=none;" vertex="1" parent="1">
          <mxGeometry x="40" y="820" width="100" height="60" as="geometry" />
        </mxCell>
        <mxCell id="cqQGVIpaapztCGoW0pUA-65" style="edgeStyle=orthogonalEdgeStyle;rounded=0;orthogonalLoop=1;jettySize=auto;html=1;curved=1;" edge="1" parent="1" source="cqQGVIpaapztCGoW0pUA-69">
          <mxGeometry relative="1" as="geometry">
            <mxPoint x="230" y="740" as="targetPoint" />
          </mxGeometry>
        </mxCell>
        <mxCell id="cqQGVIpaapztCGoW0pUA-66" style="edgeStyle=orthogonalEdgeStyle;rounded=0;orthogonalLoop=1;jettySize=auto;html=1;curved=1;endArrow=none;endFill=0;startArrow=classic;startFill=1;" edge="1" parent="1" source="cqQGVIpaapztCGoW0pUA-69">
          <mxGeometry relative="1" as="geometry">
            <mxPoint x="420" y="740" as="targetPoint" />
          </mxGeometry>
        </mxCell>
        <mxCell id="cqQGVIpaapztCGoW0pUA-67" style="edgeStyle=orthogonalEdgeStyle;rounded=0;orthogonalLoop=1;jettySize=auto;html=1;curved=1;" edge="1" parent="1" source="cqQGVIpaapztCGoW0pUA-69">
          <mxGeometry relative="1" as="geometry">
            <mxPoint x="230" y="960" as="targetPoint" />
          </mxGeometry>
        </mxCell>
        <mxCell id="cqQGVIpaapztCGoW0pUA-68" style="edgeStyle=orthogonalEdgeStyle;rounded=0;orthogonalLoop=1;jettySize=auto;html=1;curved=1;endArrow=none;endFill=0;startArrow=classic;startFill=1;" edge="1" parent="1" source="cqQGVIpaapztCGoW0pUA-69">
          <mxGeometry relative="1" as="geometry">
            <mxPoint x="420" y="970" as="targetPoint" />
          </mxGeometry>
        </mxCell>
        <mxCell id="cqQGVIpaapztCGoW0pUA-69" value="OO&lt;div&gt;OO&lt;/div&gt;" style="ellipse;whiteSpace=wrap;html=1;aspect=fixed;" vertex="1" parent="1">
          <mxGeometry x="300" y="840" width="40" height="40" as="geometry" />
        </mxCell>
        <mxCell id="cqQGVIpaapztCGoW0pUA-70" value="Inspectores&lt;div&gt;Libres 2&lt;/div&gt;" style="text;html=1;align=center;verticalAlign=middle;resizable=0;points=[];autosize=1;strokeColor=none;fillColor=none;" vertex="1" parent="1">
          <mxGeometry x="275" y="800" width="90" height="40" as="geometry" />
        </mxCell>
        <mxCell id="cqQGVIpaapztCGoW0pUA-71" value="" style="endArrow=none;html=1;rounded=0;" edge="1" parent="1">
          <mxGeometry width="50" height="50" relative="1" as="geometry">
            <mxPoint x="240" y="1030" as="sourcePoint" />
            <mxPoint x="240" y="950" as="targetPoint" />
          </mxGeometry>
        </mxCell>
        <mxCell id="cqQGVIpaapztCGoW0pUA-72" value="" style="endArrow=classic;html=1;rounded=0;" edge="1" parent="1">
          <mxGeometry width="50" height="50" relative="1" as="geometry">
            <mxPoint x="240" y="990" as="sourcePoint" />
            <mxPoint x="300" y="990" as="targetPoint" />
          </mxGeometry>
        </mxCell>
        <mxCell id="cqQGVIpaapztCGoW0pUA-73" value="" style="ellipse;whiteSpace=wrap;html=1;aspect=fixed;" vertex="1" parent="1">
          <mxGeometry x="300.0000000000001" y="970" width="40" height="40" as="geometry" />
        </mxCell>
        <mxCell id="cqQGVIpaapztCGoW0pUA-74" value="" style="endArrow=none;html=1;rounded=0;" edge="1" parent="1">
          <mxGeometry width="50" height="50" relative="1" as="geometry">
            <mxPoint x="400.0000000000001" y="1030" as="sourcePoint" />
            <mxPoint x="400.0000000000001" y="950" as="targetPoint" />
          </mxGeometry>
        </mxCell>
        <mxCell id="cqQGVIpaapztCGoW0pUA-75" value="" style="endArrow=classic;html=1;rounded=0;" edge="1" parent="1" target="cqQGVIpaapztCGoW0pUA-50">
          <mxGeometry width="50" height="50" relative="1" as="geometry">
            <mxPoint x="400.0000000000001" y="990" as="sourcePoint" />
            <mxPoint x="460.0000000000001" y="990" as="targetPoint" />
          </mxGeometry>
        </mxCell>
        <mxCell id="cqQGVIpaapztCGoW0pUA-76" value="" style="endArrow=classic;html=1;rounded=0;" edge="1" parent="1">
          <mxGeometry width="50" height="50" relative="1" as="geometry">
            <mxPoint x="340.0000000000001" y="989.5799999999999" as="sourcePoint" />
            <mxPoint x="400.0000000000001" y="990" as="targetPoint" />
          </mxGeometry>
        </mxCell>
        <mxCell id="cqQGVIpaapztCGoW0pUA-77" value="" style="endArrow=classic;html=1;rounded=0;" edge="1" parent="1" source="cqQGVIpaapztCGoW0pUA-53">
          <mxGeometry width="50" height="50" relative="1" as="geometry">
            <mxPoint x="180.0000000000001" y="989.66" as="sourcePoint" />
            <mxPoint x="240.0000000000001" y="989.66" as="targetPoint" />
          </mxGeometry>
        </mxCell>
        <mxCell id="cqQGVIpaapztCGoW0pUA-78" value="Comienza&lt;div&gt;Revision 2&lt;/div&gt;&lt;div&gt;C2&lt;/div&gt;" style="text;html=1;align=center;verticalAlign=middle;resizable=0;points=[];autosize=1;strokeColor=none;fillColor=none;" vertex="1" parent="1">
          <mxGeometry x="235" y="900" width="80" height="60" as="geometry" />
        </mxCell>
        <mxCell id="cqQGVIpaapztCGoW0pUA-79" value="&lt;div&gt;Finaliza&lt;/div&gt;&lt;div&gt;Revision 1&lt;/div&gt;&lt;div&gt;C2&lt;/div&gt;" style="text;html=1;align=center;verticalAlign=middle;resizable=0;points=[];autosize=1;strokeColor=none;fillColor=none;" vertex="1" parent="1">
          <mxGeometry x="334" y="610" width="80" height="60" as="geometry" />
        </mxCell>
        <mxCell id="cqQGVIpaapztCGoW0pUA-80" value="&lt;div&gt;Finaliza&lt;/div&gt;&lt;div&gt;Revision 2&lt;/div&gt;&lt;div&gt;C2&lt;/div&gt;" style="text;html=1;align=center;verticalAlign=middle;resizable=0;points=[];autosize=1;strokeColor=none;fillColor=none;" vertex="1" parent="1">
          <mxGeometry x="334" y="900" width="80" height="60" as="geometry" />
        </mxCell>
        <mxCell id="cqQGVIpaapztCGoW0pUA-81" value="Revisando&lt;div&gt;Persona 4&lt;/div&gt;" style="text;html=1;align=center;verticalAlign=middle;resizable=0;points=[];autosize=1;strokeColor=none;fillColor=none;" vertex="1" parent="1">
          <mxGeometry x="275" y="1015" width="80" height="40" as="geometry" />
        </mxCell>
        <mxCell id="cqQGVIpaapztCGoW0pUA-82" value="Personas&lt;div&gt;Esperando&lt;/div&gt;&lt;div&gt;en FIla&lt;/div&gt;" style="text;html=1;align=center;verticalAlign=middle;resizable=0;points=[];autosize=1;strokeColor=none;fillColor=none;" vertex="1" parent="1">
          <mxGeometry x="580" y="640" width="80" height="60" as="geometry" />
        </mxCell>
        <mxCell id="cqQGVIpaapztCGoW0pUA-83" value="" style="endArrow=none;html=1;rounded=0;" edge="1" parent="1">
          <mxGeometry width="50" height="50" relative="1" as="geometry">
            <mxPoint x="720" y="480" as="sourcePoint" />
            <mxPoint x="720" y="400" as="targetPoint" />
          </mxGeometry>
        </mxCell>
        <mxCell id="cqQGVIpaapztCGoW0pUA-84" value="" style="endArrow=classic;html=1;rounded=0;" edge="1" parent="1">
          <mxGeometry width="50" height="50" relative="1" as="geometry">
            <mxPoint x="720" y="440" as="sourcePoint" />
            <mxPoint x="780" y="440" as="targetPoint" />
          </mxGeometry>
        </mxCell>
        <mxCell id="cqQGVIpaapztCGoW0pUA-85" value="" style="endArrow=none;html=1;rounded=0;" edge="1" parent="1">
          <mxGeometry width="50" height="50" relative="1" as="geometry">
            <mxPoint x="720" y="640" as="sourcePoint" />
            <mxPoint x="720" y="560" as="targetPoint" />
          </mxGeometry>
        </mxCell>
        <mxCell id="cqQGVIpaapztCGoW0pUA-86" value="" style="endArrow=classic;html=1;rounded=0;" edge="1" parent="1">
          <mxGeometry width="50" height="50" relative="1" as="geometry">
            <mxPoint x="720" y="600" as="sourcePoint" />
            <mxPoint x="780" y="600" as="targetPoint" />
          </mxGeometry>
        </mxCell>
        <mxCell id="cqQGVIpaapztCGoW0pUA-87" value="" style="endArrow=none;html=1;rounded=0;" edge="1" parent="1">
          <mxGeometry width="50" height="50" relative="1" as="geometry">
            <mxPoint x="720" y="800" as="sourcePoint" />
            <mxPoint x="720" y="720" as="targetPoint" />
          </mxGeometry>
        </mxCell>
        <mxCell id="cqQGVIpaapztCGoW0pUA-88" value="" style="endArrow=classic;html=1;rounded=0;" edge="1" parent="1">
          <mxGeometry width="50" height="50" relative="1" as="geometry">
            <mxPoint x="720" y="760" as="sourcePoint" />
            <mxPoint x="780" y="760" as="targetPoint" />
          </mxGeometry>
        </mxCell>
        <mxCell id="cqQGVIpaapztCGoW0pUA-92" value="" style="ellipse;whiteSpace=wrap;html=1;aspect=fixed;" vertex="1" parent="1">
          <mxGeometry x="780.0000000000001" y="420" width="40" height="40" as="geometry" />
        </mxCell>
        <mxCell id="cqQGVIpaapztCGoW0pUA-93" value="" style="endArrow=none;html=1;rounded=0;" edge="1" parent="1">
          <mxGeometry width="50" height="50" relative="1" as="geometry">
            <mxPoint x="880.0000000000001" y="480" as="sourcePoint" />
            <mxPoint x="880.0000000000001" y="400" as="targetPoint" />
          </mxGeometry>
        </mxCell>
        <mxCell id="cqQGVIpaapztCGoW0pUA-94" value="" style="endArrow=classic;html=1;rounded=0;" edge="1" parent="1" target="cqQGVIpaapztCGoW0pUA-125">
          <mxGeometry width="50" height="50" relative="1" as="geometry">
            <mxPoint x="880.0000000000001" y="440" as="sourcePoint" />
            <mxPoint x="940.0000000000001" y="440" as="targetPoint" />
          </mxGeometry>
        </mxCell>
        <mxCell id="cqQGVIpaapztCGoW0pUA-95" value="" style="endArrow=classic;html=1;rounded=0;" edge="1" parent="1">
          <mxGeometry width="50" height="50" relative="1" as="geometry">
            <mxPoint x="820.0000000000001" y="439.58" as="sourcePoint" />
            <mxPoint x="880.0000000000001" y="440" as="targetPoint" />
          </mxGeometry>
        </mxCell>
        <mxCell id="cqQGVIpaapztCGoW0pUA-96" value="" style="ellipse;whiteSpace=wrap;html=1;aspect=fixed;" vertex="1" parent="1">
          <mxGeometry x="780.0000000000001" y="580" width="40" height="40" as="geometry" />
        </mxCell>
        <mxCell id="cqQGVIpaapztCGoW0pUA-97" value="" style="endArrow=none;html=1;rounded=0;" edge="1" parent="1">
          <mxGeometry width="50" height="50" relative="1" as="geometry">
            <mxPoint x="880.0000000000001" y="640" as="sourcePoint" />
            <mxPoint x="880.0000000000001" y="560" as="targetPoint" />
          </mxGeometry>
        </mxCell>
        <mxCell id="cqQGVIpaapztCGoW0pUA-98" value="" style="endArrow=classic;html=1;rounded=0;" edge="1" parent="1" target="cqQGVIpaapztCGoW0pUA-125">
          <mxGeometry width="50" height="50" relative="1" as="geometry">
            <mxPoint x="880.0000000000001" y="600" as="sourcePoint" />
            <mxPoint x="940.0000000000001" y="600" as="targetPoint" />
          </mxGeometry>
        </mxCell>
        <mxCell id="cqQGVIpaapztCGoW0pUA-99" value="" style="endArrow=classic;html=1;rounded=0;" edge="1" parent="1">
          <mxGeometry width="50" height="50" relative="1" as="geometry">
            <mxPoint x="820.0000000000001" y="599.5799999999999" as="sourcePoint" />
            <mxPoint x="880.0000000000001" y="600" as="targetPoint" />
          </mxGeometry>
        </mxCell>
        <mxCell id="cqQGVIpaapztCGoW0pUA-100" value="" style="ellipse;whiteSpace=wrap;html=1;aspect=fixed;" vertex="1" parent="1">
          <mxGeometry x="780.0000000000001" y="740" width="40" height="40" as="geometry" />
        </mxCell>
        <mxCell id="cqQGVIpaapztCGoW0pUA-101" value="" style="endArrow=none;html=1;rounded=0;" edge="1" parent="1">
          <mxGeometry width="50" height="50" relative="1" as="geometry">
            <mxPoint x="880.0000000000001" y="800" as="sourcePoint" />
            <mxPoint x="880.0000000000001" y="720" as="targetPoint" />
          </mxGeometry>
        </mxCell>
        <mxCell id="cqQGVIpaapztCGoW0pUA-102" value="" style="endArrow=classic;html=1;rounded=0;" edge="1" parent="1" target="cqQGVIpaapztCGoW0pUA-125">
          <mxGeometry width="50" height="50" relative="1" as="geometry">
            <mxPoint x="880.0000000000001" y="760" as="sourcePoint" />
            <mxPoint x="940.0000000000001" y="760" as="targetPoint" />
          </mxGeometry>
        </mxCell>
        <mxCell id="cqQGVIpaapztCGoW0pUA-103" value="" style="endArrow=classic;html=1;rounded=0;" edge="1" parent="1">
          <mxGeometry width="50" height="50" relative="1" as="geometry">
            <mxPoint x="820.0000000000001" y="759.5799999999999" as="sourcePoint" />
            <mxPoint x="880.0000000000001" y="760" as="targetPoint" />
          </mxGeometry>
        </mxCell>
        <mxCell id="cqQGVIpaapztCGoW0pUA-104" value="Ingresa&amp;nbsp;&lt;div&gt;Persona&lt;/div&gt;&lt;div&gt;P1&lt;/div&gt;" style="text;html=1;align=center;verticalAlign=middle;resizable=0;points=[];autosize=1;strokeColor=none;fillColor=none;" vertex="1" parent="1">
          <mxGeometry x="710" y="380" width="70" height="60" as="geometry" />
        </mxCell>
        <mxCell id="cqQGVIpaapztCGoW0pUA-105" value="Ingresa&amp;nbsp;&lt;div&gt;Persona&lt;/div&gt;&lt;div&gt;P2&lt;/div&gt;" style="text;html=1;align=center;verticalAlign=middle;resizable=0;points=[];autosize=1;strokeColor=none;fillColor=none;" vertex="1" parent="1">
          <mxGeometry x="720" y="535" width="70" height="60" as="geometry" />
        </mxCell>
        <mxCell id="cqQGVIpaapztCGoW0pUA-106" value="Ingresa&amp;nbsp;&lt;div&gt;Persona&lt;/div&gt;&lt;div&gt;P3&lt;/div&gt;" style="text;html=1;align=center;verticalAlign=middle;resizable=0;points=[];autosize=1;strokeColor=none;fillColor=none;" vertex="1" parent="1">
          <mxGeometry x="720" y="690" width="70" height="60" as="geometry" />
        </mxCell>
        <mxCell id="cqQGVIpaapztCGoW0pUA-107" style="edgeStyle=orthogonalEdgeStyle;rounded=0;orthogonalLoop=1;jettySize=auto;html=1;curved=1;" edge="1" source="cqQGVIpaapztCGoW0pUA-109" parent="1">
          <mxGeometry relative="1" as="geometry">
            <mxPoint x="710" y="430" as="targetPoint" />
          </mxGeometry>
        </mxCell>
        <mxCell id="cqQGVIpaapztCGoW0pUA-108" style="edgeStyle=orthogonalEdgeStyle;rounded=0;orthogonalLoop=1;jettySize=auto;html=1;curved=1;endArrow=none;endFill=0;startArrow=classic;startFill=1;" edge="1" source="cqQGVIpaapztCGoW0pUA-109" parent="1">
          <mxGeometry relative="1" as="geometry">
            <mxPoint x="890" y="430" as="targetPoint" />
          </mxGeometry>
        </mxCell>
        <mxCell id="cqQGVIpaapztCGoW0pUA-109" value="O" style="ellipse;whiteSpace=wrap;html=1;aspect=fixed;" vertex="1" parent="1">
          <mxGeometry x="780" y="340" width="40" height="40" as="geometry" />
        </mxCell>
        <mxCell id="cqQGVIpaapztCGoW0pUA-110" style="edgeStyle=orthogonalEdgeStyle;rounded=0;orthogonalLoop=1;jettySize=auto;html=1;curved=1;" edge="1" source="cqQGVIpaapztCGoW0pUA-112" parent="1">
          <mxGeometry relative="1" as="geometry">
            <mxPoint x="709.76" y="590" as="targetPoint" />
          </mxGeometry>
        </mxCell>
        <mxCell id="cqQGVIpaapztCGoW0pUA-111" style="edgeStyle=orthogonalEdgeStyle;rounded=0;orthogonalLoop=1;jettySize=auto;html=1;curved=1;endArrow=none;endFill=0;startArrow=classic;startFill=1;" edge="1" source="cqQGVIpaapztCGoW0pUA-112" parent="1">
          <mxGeometry relative="1" as="geometry">
            <mxPoint x="889.76" y="590" as="targetPoint" />
          </mxGeometry>
        </mxCell>
        <mxCell id="cqQGVIpaapztCGoW0pUA-112" value="O" style="ellipse;whiteSpace=wrap;html=1;aspect=fixed;" vertex="1" parent="1">
          <mxGeometry x="780" y="500" width="40" height="40" as="geometry" />
        </mxCell>
        <mxCell id="cqQGVIpaapztCGoW0pUA-113" style="edgeStyle=orthogonalEdgeStyle;rounded=0;orthogonalLoop=1;jettySize=auto;html=1;curved=1;" edge="1" source="cqQGVIpaapztCGoW0pUA-115" parent="1">
          <mxGeometry relative="1" as="geometry">
            <mxPoint x="710" y="750" as="targetPoint" />
          </mxGeometry>
        </mxCell>
        <mxCell id="cqQGVIpaapztCGoW0pUA-114" style="edgeStyle=orthogonalEdgeStyle;rounded=0;orthogonalLoop=1;jettySize=auto;html=1;curved=1;endArrow=none;endFill=0;startArrow=classic;startFill=1;" edge="1" source="cqQGVIpaapztCGoW0pUA-115" parent="1">
          <mxGeometry relative="1" as="geometry">
            <mxPoint x="890" y="750" as="targetPoint" />
          </mxGeometry>
        </mxCell>
        <mxCell id="cqQGVIpaapztCGoW0pUA-115" value="O" style="ellipse;whiteSpace=wrap;html=1;aspect=fixed;" vertex="1" parent="1">
          <mxGeometry x="780" y="670" width="40" height="40" as="geometry" />
        </mxCell>
        <mxCell id="cqQGVIpaapztCGoW0pUA-116" value="Detector 1" style="text;html=1;align=center;verticalAlign=middle;resizable=0;points=[];autosize=1;strokeColor=none;fillColor=none;" vertex="1" parent="1">
          <mxGeometry x="820" y="328" width="80" height="30" as="geometry" />
        </mxCell>
        <mxCell id="cqQGVIpaapztCGoW0pUA-117" value="Detector 2" style="text;html=1;align=center;verticalAlign=middle;resizable=0;points=[];autosize=1;strokeColor=none;fillColor=none;" vertex="1" parent="1">
          <mxGeometry x="820" y="490" width="80" height="30" as="geometry" />
        </mxCell>
        <mxCell id="cqQGVIpaapztCGoW0pUA-118" value="Detector 3" style="text;html=1;align=center;verticalAlign=middle;resizable=0;points=[];autosize=1;strokeColor=none;fillColor=none;" vertex="1" parent="1">
          <mxGeometry x="830" y="660" width="80" height="30" as="geometry" />
        </mxCell>
        <mxCell id="cqQGVIpaapztCGoW0pUA-119" value="Finaliza&lt;div&gt;Deteccion&lt;/div&gt;&lt;div&gt;P1&lt;/div&gt;" style="text;html=1;align=center;verticalAlign=middle;resizable=0;points=[];autosize=1;strokeColor=none;fillColor=none;" vertex="1" parent="1">
          <mxGeometry x="810" y="373" width="80" height="60" as="geometry" />
        </mxCell>
        <mxCell id="cqQGVIpaapztCGoW0pUA-120" value="Finaliza&lt;div&gt;Deteccion&lt;/div&gt;&lt;div&gt;P2&lt;/div&gt;" style="text;html=1;align=center;verticalAlign=middle;resizable=0;points=[];autosize=1;strokeColor=none;fillColor=none;" vertex="1" parent="1">
          <mxGeometry x="800" y="540" width="80" height="60" as="geometry" />
        </mxCell>
        <mxCell id="cqQGVIpaapztCGoW0pUA-121" value="Finaliza&lt;div&gt;Deteccion&lt;/div&gt;&lt;div&gt;P3&lt;/div&gt;" style="text;html=1;align=center;verticalAlign=middle;resizable=0;points=[];autosize=1;strokeColor=none;fillColor=none;" vertex="1" parent="1">
          <mxGeometry x="810" y="700" width="80" height="60" as="geometry" />
        </mxCell>
        <mxCell id="cqQGVIpaapztCGoW0pUA-122" value="Detectando&lt;div&gt;Metales 1&lt;/div&gt;" style="text;html=1;align=center;verticalAlign=middle;resizable=0;points=[];autosize=1;strokeColor=none;fillColor=none;" vertex="1" parent="1">
          <mxGeometry x="760" y="460" width="80" height="40" as="geometry" />
        </mxCell>
        <mxCell id="cqQGVIpaapztCGoW0pUA-123" value="Detectando&lt;div&gt;Metales 2&lt;/div&gt;" style="text;html=1;align=center;verticalAlign=middle;resizable=0;points=[];autosize=1;strokeColor=none;fillColor=none;" vertex="1" parent="1">
          <mxGeometry x="760" y="620" width="80" height="40" as="geometry" />
        </mxCell>
        <mxCell id="cqQGVIpaapztCGoW0pUA-124" value="Detectando&lt;div&gt;Metales 3&lt;/div&gt;" style="text;html=1;align=center;verticalAlign=middle;resizable=0;points=[];autosize=1;strokeColor=none;fillColor=none;" vertex="1" parent="1">
          <mxGeometry x="760" y="780" width="80" height="40" as="geometry" />
        </mxCell>
        <mxCell id="cqQGVIpaapztCGoW0pUA-125" value="" style="ellipse;whiteSpace=wrap;html=1;aspect=fixed;" vertex="1" parent="1">
          <mxGeometry x="1000" y="580" width="40" height="40" as="geometry" />
        </mxCell>
        <mxCell id="cqQGVIpaapztCGoW0pUA-126" value="Personas&lt;div&gt;Ingresando&lt;/div&gt;" style="text;html=1;align=center;verticalAlign=middle;resizable=0;points=[];autosize=1;strokeColor=none;fillColor=none;" vertex="1" parent="1">
          <mxGeometry x="980" y="630" width="80" height="40" as="geometry" />
        </mxCell>
        <mxCell id="cqQGVIpaapztCGoW0pUA-127" value="" style="endArrow=none;html=1;rounded=0;" edge="1" parent="1">
          <mxGeometry width="50" height="50" relative="1" as="geometry">
            <mxPoint x="1120" y="520" as="sourcePoint" />
            <mxPoint x="1120" y="440" as="targetPoint" />
          </mxGeometry>
        </mxCell>
        <mxCell id="cqQGVIpaapztCGoW0pUA-128" value="" style="endArrow=classic;html=1;rounded=0;" edge="1" parent="1" source="cqQGVIpaapztCGoW0pUA-125">
          <mxGeometry width="50" height="50" relative="1" as="geometry">
            <mxPoint x="1060" y="479.6" as="sourcePoint" />
            <mxPoint x="1120" y="479.6" as="targetPoint" />
          </mxGeometry>
        </mxCell>
        <mxCell id="cqQGVIpaapztCGoW0pUA-129" value="" style="endArrow=none;html=1;rounded=0;" edge="1" parent="1">
          <mxGeometry width="50" height="50" relative="1" as="geometry">
            <mxPoint x="1120" y="760" as="sourcePoint" />
            <mxPoint x="1120" y="680" as="targetPoint" />
          </mxGeometry>
        </mxCell>
        <mxCell id="cqQGVIpaapztCGoW0pUA-130" value="" style="endArrow=classic;html=1;rounded=0;" edge="1" parent="1" source="cqQGVIpaapztCGoW0pUA-125">
          <mxGeometry width="50" height="50" relative="1" as="geometry">
            <mxPoint x="1060" y="719.6" as="sourcePoint" />
            <mxPoint x="1120" y="719.6" as="targetPoint" />
          </mxGeometry>
        </mxCell>
        <mxCell id="cqQGVIpaapztCGoW0pUA-131" value="Se ubica&lt;div&gt;Persona&lt;/div&gt;&lt;div&gt;en Sector 1&lt;/div&gt;" style="text;html=1;align=center;verticalAlign=middle;resizable=0;points=[];autosize=1;strokeColor=none;fillColor=none;" vertex="1" parent="1">
          <mxGeometry x="1060" y="373" width="80" height="60" as="geometry" />
        </mxCell>
        <mxCell id="cqQGVIpaapztCGoW0pUA-132" value="Se ubica&lt;div&gt;Persona&lt;/div&gt;&lt;div&gt;en Sector 2&lt;/div&gt;" style="text;html=1;align=center;verticalAlign=middle;resizable=0;points=[];autosize=1;strokeColor=none;fillColor=none;" vertex="1" parent="1">
          <mxGeometry x="1090" y="620" width="80" height="60" as="geometry" />
        </mxCell>
      </root>
    </mxGraphModel>
  </diagram>
</mxfile>
